An hilarious oddity by Peter Fleischmann (Hard to Be a God , Hunting Scenes from Bavaria), scripted by himself and Jean-Claude Carrière (Max mon amour, The Discreet Charm of the Bourgeoisie and countless other classics).

Dorothea, a 16-year-old bourgeois girl from Hamburg, plays with her friends of both sexes, imitating the production of adult movies. In the end, pretending to make sex-scenes is not satisfying enough, and with a street professional, Dorothea is initiated in hard sex.

_________________________________

Rip Specs



General

Complete name                    : F:\Dorotheas.Rache.1974.DVDRip.x264-ShitBusters\Dorotheas.Rache.1974.DVDRip.x264-ShitBusters.mkv
Format                           : Matroska
File size                        : 1.46 GiB
Duration                         : 1h 26mn
Overall bit rate                 : 2 407 Kbps


Video

ID                               : 1
Format                           : AVC
Format/Info                      : Advanced Video Codec
Format profile                   : High@L4.1
Format settings, CABAC           : Yes
Format settings, ReFrames        : 16 frames
Format settings, GOP             : N=1
Muxing mode                      : Header stripping
Codec ID                         : V_MPEG4/ISO/AVC
Duration                         : 1h 26mn
Bit rate                         : 2 214 Kbps
Width                            : 684 pixels
Height                           : 564 pixels
Display aspect ratio             : 4:3
Frame rate                       : 25.000 fps
Color space                      : YUV
Chroma subsampling               : 4:2:0
Bit depth                        : 8 bits
Scan type                        : Progressive
Bits/(Pixel*Frame)               : 0.230
Stream size                      : 1.31 GiB (90%)
Title                            : Dorotheas Rache / Dorothea's Revenge (1974)
Writing library                  : x264 core 104 r1683 62997d6


Audio

ID                               : 2
Format                           : AC-3
Format/Info                      : Audio Coding 3
Mode extension                   : CM (complete main)
Muxing mode                      : Header stripping
Codec ID                         : A_AC3
Duration                         : 1h 26mn
Bit rate mode                    : Constant
Bit rate                         : 192 Kbps
Channel(s)                       : 2 channels
Channel positions                : Front: L R
Sampling rate                    : 48.0 KHz
Bit depth                        : 16 bits
Compression mode                 : Lossy
Stream size                      : 119 MiB (8%)
Title                            : German Audio (AC3 @ 192 kbps, 2 channels)
Language                         : German
